<?xml version="1.0" encoding="utf-8"?>
<!-- Generator: Adobe Illustrator 18.0.0, SVG Export Plug-In . SVG Version: 6.00 Build 0)  -->
<!DOCTYPE svg PUBLIC "-//W3C//DTD SVG 1.0//EN" "http://www.w3.org/TR/2001/REC-SVG-20010904/DTD/svg10.dtd">
<svg version="1.0" id="Layer_1" xmlns="http://www.w3.org/2000/svg" xmlns:xlink="http://www.w3.org/1999/xlink" x="0px" y="0px"
	 viewBox="0 0 192 192" enable-background="new 0 0 192 192" xml:space="preserve">
<g>
	<path fill-rule="evenodd" clip-rule="evenodd" fill="#5F5DA5" d="M95.6,0.7c52.6,0,95.2,42.6,95.2,95.2s-42.6,95.2-95.2,95.2
		S0.4,148.6,0.4,95.9S43,0.7,95.6,0.7z"/>
	<path fill-rule="evenodd" clip-rule="evenodd" fill="#DEDEDE" d="M95.6,9.2c47.9,0,86.8,38.8,86.8,86.8s-38.8,86.7-86.8,86.7
		S8.9,143.9,8.9,95.9S47.7,9.2,95.6,9.2z"/>
	<path fill-rule="evenodd" clip-rule="evenodd" fill="#5F5DA5" d="M57.4,57.7h78c3.9,0,7,3.1,7,7v63.5c0,3.9-3.1,7-7,7h-78
		c-3.9,0-7-3.1-7-7V64.7C50.4,60.8,53.5,57.7,57.4,57.7z"/>
	<g>
		<polygon fill="#DEDEDE" points="114.4,79.7 114.4,56.7 110.9,56.7 110.9,79.7 110.9,83.7 114.4,83.7 143.4,83.7 143.4,79.7 		"/>
		<polygon fill="#DEDEDE" points="77.9,79.7 49.4,79.7 49.4,83.7 77.9,83.7 77.9,109.2 49.4,109.2 49.4,113.2 77.9,113.2 
			77.9,136.2 81.4,136.2 81.4,113.2 81.4,109.2 81.4,83.7 81.4,79.7 81.4,56.7 77.9,56.7 		"/>
		<polygon fill="#DEDEDE" points="110.9,109.2 110.9,113.2 110.9,136.2 114.4,136.2 114.4,113.2 143.4,113.2 143.4,109.2 
			114.4,109.2 		"/>
	</g>
</g>
</svg>
