<?xml version="1.0" encoding="utf-8"?>
<!-- Generator: Adobe Illustrator 18.0.0, SVG Export Plug-In . SVG Version: 6.00 Build 0)  -->
<!DOCTYPE svg PUBLIC "-//W3C//DTD SVG 1.0//EN" "http://www.w3.org/TR/2001/REC-SVG-20010904/DTD/svg10.dtd">
<svg version="1.0" id="Layer_2" xmlns="http://www.w3.org/2000/svg" xmlns:xlink="http://www.w3.org/1999/xlink" x="0px" y="0px"
	 viewBox="0 141.3 595.3 559.2" enable-background="new 0 141.3 595.3 559.2" xml:space="preserve">
<g>
	<g>
		<rect x="122.7" y="437.2" fill="#FFFFFF" width="66.7" height="63.1"/>
		<polygon fill="#FFFFFF" points="348.1,500.3 348.1,437.2 279.6,437.2 270.6,437.2 270.6,426.4 270.6,372.2 198.4,372.2 
			198.4,426.4 198.4,437.2 198.4,500.3 198.4,509.3 198.4,563.5 270.6,563.5 270.6,509.3 270.6,500.3 279.6,500.3 		"/>
		<path fill="#FFFFFF" d="M279.6,426.4h68.5v-36.1c0-9-7.2-18-18-18h-52.3v54.1H279.6z"/>
		<path fill="#FFFFFF" d="M189.4,426.4v-54.1h-48.7c-9,0-18,7.2-18,18v36.1H189.4z"/>
		<path fill="#FFFFFF" d="M189.4,509.3h-66.7v36.1c0,9,7.2,18,18,18h50.5v-54.1H189.4z"/>
		<path fill="#FFFFFF" d="M279.6,509.3v54.1h52.3c9,0,18-7.2,18-18v-36.1H279.6z"/>
	</g>
	<path fill="#FFFFFF" d="M442,420.9c3.6,14.4,5.4,30.7,5.4,46.9c0,117.3-95.6,212.9-212.9,212.9S21.6,585.1,21.6,467.8
		c0-119.1,93.8-214.7,212.9-214.7c36.1,0,68.5,9,99.2,23.5c3.6-5.4,9-10.8,14.4-16.2c-34.3-18-72.2-28.9-113.6-28.9
		C104.6,231.5,0,336.2,0,466s104.6,234.5,234.5,234.5S469,595.9,469,466c0-19.8-1.8-37.9-7.2-55.9
		C454.6,413.7,449.2,417.3,442,420.9z"/>
	<circle fill="#FFFFFF" cx="407.7" cy="327.1" r="25.3"/>
	<path fill="#FFFFFF" d="M413.1,249.6l-1.8,25.3c27.1,1.8,48.7,25.3,48.7,52.3c0,5.4,0,10.8-1.8,16.2l25.3,3.6
		c1.8-5.4,1.8-12.6,1.8-18C487,285.7,454.6,251.4,413.1,249.6z"/>
	<path fill="#FFFFFF" d="M416.7,191.9l-1.8,25.3c57.7,3.6,102.8,52.3,102.8,110c0,7.2,0,14.4-1.8,21.6l25.3,3.6
		c1.8-7.2,1.8-16.2,1.8-25.3C544.8,255,488.9,195.5,416.7,191.9z"/>
	<path fill="#FFFFFF" d="M420.3,141.3l-1.8,25.3c84.8,5.4,149.7,75.8,149.7,160.5c0,9,0,18-1.8,27.1l25.3,3.6
		c1.8-9,1.8-19.8,1.8-30.7C595.3,227.9,517.7,146.8,420.3,141.3z"/>
</g>
</svg>
