<?xml version="1.0" encoding="utf-8"?>
<!-- Generator: Adobe Illustrator 18.0.0, SVG Export Plug-In . SVG Version: 6.00 Build 0)  -->
<!DOCTYPE svg PUBLIC "-//W3C//DTD SVG 1.0//EN" "http://www.w3.org/TR/2001/REC-SVG-20010904/DTD/svg10.dtd">
<svg version="1.0" id="Layer_2" xmlns="http://www.w3.org/2000/svg" xmlns:xlink="http://www.w3.org/1999/xlink" x="0px" y="0px"
	 viewBox="0 0 33 31" enable-background="new 0 0 33 31" xml:space="preserve">
<g>
	<g>
		<rect x="6.8" y="16.4" fill-rule="evenodd" clip-rule="evenodd" fill="#5E5DA4" width="3.7" height="3.5"/>
		<polygon fill-rule="evenodd" clip-rule="evenodd" fill="#5E5DA4" points="19.3,19.9 19.3,16.4 15.5,16.4 15,16.4 15,15.8 15,12.8 
			11,12.8 11,15.8 11,16.4 11,19.9 11,20.4 11,23.4 15,23.4 15,20.4 15,19.9 15.5,19.9 		"/>
		<path fill-rule="evenodd" clip-rule="evenodd" fill="#5E5DA4" d="M15.5,15.8h3.8v-2c0-0.5-0.4-1-1-1h-2.9V15.8z"/>
		<path fill-rule="evenodd" clip-rule="evenodd" fill="#5E5DA4" d="M10.5,15.8v-3H7.8c-0.5,0-1,0.4-1,1v2H10.5z"/>
		<path fill-rule="evenodd" clip-rule="evenodd" fill="#5E5DA4" d="M10.5,20.4H6.8v2c0,0.5,0.4,1,1,1h2.8V20.4z"/>
		<path fill-rule="evenodd" clip-rule="evenodd" fill="#5E5DA4" d="M15.5,20.4v3h2.9c0.5,0,1-0.4,1-1v-2H15.5z"/>
	</g>
	<path fill-rule="evenodd" clip-rule="evenodd" fill="#5E5DA4" d="M24.5,15.5c0.2,0.8,0.3,1.7,0.3,2.6c0,6.5-5.3,11.8-11.8,11.8
		c-6.5,0-11.8-5.3-11.8-11.8C1.2,11.5,6.4,6.2,13,6.2c2,0,3.8,0.5,5.5,1.3c0.2-0.3,0.5-0.6,0.8-0.9c-1.9-1-4-1.6-6.3-1.6
		c-7.2,0-13,5.8-13,13c0,7.2,5.8,13,13,13c7.2,0,13-5.8,13-13c0-1.1-0.1-2.1-0.4-3.1C25.2,15.1,24.9,15.3,24.5,15.5z"/>
	<circle fill="#5E5DA4" cx="22.6" cy="10.3" r="1.4"/>
	<path fill="#5E5DA4" d="M22.9,6l-0.1,1.4c1.5,0.1,2.7,1.4,2.7,2.9c0,0.3,0,0.6-0.1,0.9l1.4,0.2c0.1-0.3,0.1-0.7,0.1-1
		C27,8,25.2,6.1,22.9,6z"/>
	<path fill="#5E5DA4" d="M23.1,2.8L23,4.2c3.2,0.2,5.7,2.9,5.7,6.1c0,0.4,0,0.8-0.1,1.2l1.4,0.2c0.1-0.4,0.1-0.9,0.1-1.4
		C30.2,6.3,27.1,3,23.1,2.8z"/>
	<path fill="#5E5DA4" d="M23.3,0l-0.1,1.4c4.7,0.3,8.3,4.2,8.3,8.9c0,0.5,0,1-0.1,1.5l1.4,0.2c0.1-0.5,0.1-1.1,0.1-1.7
		C33,4.8,28.7,0.3,23.3,0z"/>
</g>
</svg>
