<?xml version="1.0" encoding="utf-8"?>
<!-- Generator: Adobe Illustrator 18.0.0, SVG Export Plug-In . SVG Version: 6.00 Build 0)  -->
<!DOCTYPE svg PUBLIC "-//W3C//DTD SVG 1.0//EN" "http://www.w3.org/TR/2001/REC-SVG-20010904/DTD/svg10.dtd">
<svg version="1.0" id="Layer_2" xmlns="http://www.w3.org/2000/svg" xmlns:xlink="http://www.w3.org/1999/xlink" x="0px" y="0px"
	 viewBox="0 0 26 26" enable-background="new 0 0 26 26" xml:space="preserve">
<g>
	<g>
		<rect x="6.8" y="11.3" fill-rule="evenodd" clip-rule="evenodd" fill="#5E5DA4" width="3.8" height="3.5"/>
		<polygon fill-rule="evenodd" clip-rule="evenodd" fill="#5E5DA4" points="19.4,14.8 19.4,11.3 15.6,11.3 15.1,11.3 15.1,10.8 
			15.1,7.8 11.1,7.8 11.1,10.8 11.1,11.3 11.1,14.8 11.1,15.4 11.1,18.4 15.1,18.4 15.1,15.4 15.1,14.8 15.6,14.8 		"/>
		<path fill-rule="evenodd" clip-rule="evenodd" fill="#5E5DA4" d="M15.6,10.8h3.8v-2c0-0.5-0.4-1-1-1h-2.9V10.8z"/>
		<path fill-rule="evenodd" clip-rule="evenodd" fill="#5E5DA4" d="M10.6,10.8v-3H7.8c-0.5,0-1,0.4-1,1v2H10.6z"/>
		<path fill-rule="evenodd" clip-rule="evenodd" fill="#5E5DA4" d="M10.6,15.4H6.8v2c0,0.5,0.4,1,1,1h2.8V15.4z"/>
		<path fill-rule="evenodd" clip-rule="evenodd" fill="#5E5DA4" d="M15.6,15.4v3h2.9c0.5,0,1-0.4,1-1v-2H15.6z"/>
	</g>
	<path fill-rule="evenodd" clip-rule="evenodd" fill="#5E5DA4" d="M24.6,10.4c0.2,0.8,0.3,1.7,0.3,2.6c0,6.5-5.3,11.8-11.8,11.8
		C6.5,24.8,1.2,19.5,1.2,13C1.2,6.5,6.5,1.2,13,1.2c2,0,3.8,0.5,5.5,1.3c0.2-0.3,0.5-0.6,0.8-0.9c-1.9-1-4-1.6-6.3-1.6
		C5.8,0,0,5.8,0,13c0,7.2,5.8,13,13,13c7.2,0,13-5.8,13-13c0-1.1-0.1-2.1-0.4-3.1C25.3,10.1,24.9,10.3,24.6,10.4z"/>
	<circle fill="#5E5DA4" cx="22.7" cy="5.3" r="1.4"/>
</g>
</svg>
