<?xml version="1.0" encoding="utf-8"?>
<!-- Generator: Adobe Illustrator 18.0.0, SVG Export Plug-In . SVG Version: 6.00 Build 0)  -->
<!DOCTYPE svg PUBLIC "-//W3C//DTD SVG 1.0//EN" "http://www.w3.org/TR/2001/REC-SVG-20010904/DTD/svg10.dtd">
<svg version="1.0" id="Layer_2" xmlns="http://www.w3.org/2000/svg" xmlns:xlink="http://www.w3.org/1999/xlink" x="0px" y="0px"
	 viewBox="0 123.3 595.3 595.3" enable-background="new 0 123.3 595.3 595.3" xml:space="preserve">
<g>
	<g>
		<rect x="155.7" y="382" fill="#FFFFFF" width="87" height="80.1"/>
		<polygon fill="#FFFFFF" points="444.2,462.2 444.2,382 357.2,382 345.7,382 345.7,370.6 345.7,301.9 254.1,301.9 254.1,370.6 
			254.1,382 254.1,462.2 254.1,475.9 254.1,544.6 345.7,544.6 345.7,475.9 345.7,462.2 357.2,462.2 		"/>
		<path fill="#FFFFFF" d="M357.2,370.6h87v-45.8c0-11.4-9.2-22.9-22.9-22.9h-66.4v68.7H357.2z"/>
		<path fill="#FFFFFF" d="M242.7,370.6v-68.7h-64.1c-11.4,0-22.9,9.2-22.9,22.9v45.8H242.7z"/>
		<path fill="#FFFFFF" d="M242.7,475.9h-87v45.8c0,11.4,9.2,22.9,22.9,22.9h64.1V475.9z"/>
		<path fill="#FFFFFF" d="M357.2,475.9v68.7h66.4c11.4,0,22.9-9.2,22.9-22.9v-45.8H357.2z"/>
	</g>
	<path fill="#FFFFFF" d="M558.6,565.2c4.6-9.2,11.4-20.6,13.7-32.1c0-2.3,2.3-4.6,2.3-6.9c2.3-9.2,6.9-16,9.2-25.2
		c0-4.6,2.3-6.9,2.3-11.4c2.3-9.2,4.6-16,4.6-25.2c0-2.3,2.3-6.9,2.3-9.2c2.3-11.4,2.3-22.9,2.3-34.3s0-22.9-2.3-34.3
		c0-2.3,0-6.9-2.3-9.2c-2.3-9.2-2.3-16-4.6-22.9c0-2.3,0-2.3,0-4.6l0,0c-20.6-80.1-73.3-148.8-144.2-187.7l0,0l0,0
		c-9.2-4.6-20.6-11.4-32.1-13.7c-2.3,0-4.6-2.3-6.9-2.3c-9.2-2.3-16-6.9-25.2-9.2c-4.6,0-6.9-2.3-11.4-2.3c-9.2-2.3-16-4.6-25.2-4.6
		c-4.6,0-6.9-2.3-9.2-2.3c-11.4-4.6-22.9-4.6-34.3-4.6c-9.2,0-20.6,0-29.8,2.3c-29.8,2.3-59.5,11.4-84.7,22.9
		c-45.8,16-84.7,45.8-114.5,82.4c-13.7,16-22.9,32.1-32.1,48.1C13.7,320.2,0,370.6,0,420.9s13.7,100.7,36.6,142
		c9.2,16,18.3,32.1,32.1,48.1c29.8,36.6,68.7,66.4,114.5,84.7c27.5,11.4,54.9,18.3,84.7,22.9c9.2,0,20.6,2.3,29.8,2.3
		c11.4,0,22.9,0,34.3-2.3c2.3,0,6.9,0,9.2-2.3c9.2-2.3,16-2.3,22.9-4.6c2.3,0,2.3,0,4.6,0l0,0C451,688.8,517.4,636.2,558.6,565.2
		L558.6,565.2L558.6,565.2z M354.9,686.5c-6.9,2.3-16,2.3-22.9,4.6c-2.3,0-4.6,0-6.9,0c-9.2,0-20.6,2.3-29.8,2.3
		C148.8,691.1,27.5,569.8,27.5,420.9s121.3-270.2,270.2-270.2c11.4,0,20.6,0,32.1,2.3c2.3,0,6.9,0,9.2,2.3c6.9,0,13.7,2.3,20.6,4.6
		c2.3,0,6.9,2.3,9.2,2.3c6.9,2.3,13.7,4.6,20.6,6.9c2.3,0,4.6,2.3,9.2,2.3c6.9,2.3,16,6.9,22.9,9.2c71,36.6,125.9,103,142,183.2
		c2.3,6.9,2.3,16,4.6,22.9c0,2.3,0,4.6,0,6.9c0,9.2,2.3,20.6,2.3,29.8c0,11.4,0,20.6-2.3,32.1c0,2.3,0,6.9-2.3,9.2
		c0,6.9-2.3,13.7-4.6,20.6c0,2.3-2.3,6.9-2.3,9.2c-2.3,6.9-4.6,13.7-6.9,20.6c0,2.3-2.3,4.6-2.3,9.2c-2.3,6.9-6.9,16-9.2,22.9
		C503.7,615.6,437.3,668.2,354.9,686.5z"/>
</g>
</svg>
