<?xml version="1.0" encoding="utf-8"?>
<!-- Generator: Adobe Illustrator 18.0.0, SVG Export Plug-In . SVG Version: 6.00 Build 0)  -->
<!DOCTYPE svg PUBLIC "-//W3C//DTD SVG 1.0//EN" "http://www.w3.org/TR/2001/REC-SVG-20010904/DTD/svg10.dtd">
<svg version="1.0" id="Layer_2" xmlns="http://www.w3.org/2000/svg" xmlns:xlink="http://www.w3.org/1999/xlink" x="0px" y="0px"
	 viewBox="0 0 26 26" enable-background="new 0 0 26 26" xml:space="preserve">
<g>
	<g>
		<rect x="6.8" y="11.3" fill-rule="evenodd" clip-rule="evenodd" fill="#5E5DA4" width="3.8" height="3.5"/>
		<polygon fill-rule="evenodd" clip-rule="evenodd" fill="#5E5DA4" points="19.4,14.8 19.4,11.3 15.6,11.3 15.1,11.3 15.1,10.8 
			15.1,7.8 11.1,7.8 11.1,10.8 11.1,11.3 11.1,14.8 11.1,15.4 11.1,18.4 15.1,18.4 15.1,15.4 15.1,14.8 15.6,14.8 		"/>
		<path fill-rule="evenodd" clip-rule="evenodd" fill="#5E5DA4" d="M15.6,10.8h3.8v-2c0-0.5-0.4-1-1-1h-2.9V10.8z"/>
		<path fill-rule="evenodd" clip-rule="evenodd" fill="#5E5DA4" d="M10.6,10.8v-3H7.8c-0.5,0-1,0.4-1,1v2H10.6z"/>
		<path fill-rule="evenodd" clip-rule="evenodd" fill="#5E5DA4" d="M10.6,15.4H6.8v2c0,0.5,0.4,1,1,1h2.8V15.4z"/>
		<path fill-rule="evenodd" clip-rule="evenodd" fill="#5E5DA4" d="M15.6,15.4v3h2.9c0.5,0,1-0.4,1-1v-2H15.6z"/>
	</g>
	<path fill-rule="evenodd" clip-rule="evenodd" fill="#5E5DA4" d="M24.4,19.3c0.2-0.4,0.5-0.9,0.6-1.4c0-0.1,0.1-0.2,0.1-0.3
		c0.1-0.4,0.3-0.7,0.4-1.1c0-0.2,0.1-0.3,0.1-0.5c0.1-0.4,0.2-0.7,0.2-1.1c0-0.1,0.1-0.3,0.1-0.4C26,14,26,13.5,26,13
		c0-0.5,0-1-0.1-1.5c0-0.1,0-0.3-0.1-0.4c-0.1-0.4-0.1-0.7-0.2-1c0-0.1,0-0.1,0-0.2c0,0,0,0,0,0c-0.9-3.5-3.2-6.5-6.3-8.2
		c0,0,0,0,0,0c0,0,0,0,0,0c-0.4-0.2-0.9-0.5-1.4-0.6c-0.1,0-0.2-0.1-0.3-0.1c-0.4-0.1-0.7-0.3-1.1-0.4c-0.2,0-0.3-0.1-0.5-0.1
		c-0.4-0.1-0.7-0.2-1.1-0.2c-0.2,0-0.3-0.1-0.4-0.1C14,0,13.5,0,13,0c-0.4,0-0.9,0-1.3,0.1c-1.3,0.1-2.6,0.5-3.7,1
		C6,1.8,4.3,3.1,3,4.7C2.4,5.4,2,6.1,1.6,6.8C0.6,8.6,0,10.8,0,13s0.6,4.4,1.6,6.2C2,19.9,2.4,20.6,3,21.3c1.3,1.6,3,2.9,5,3.7
		c1.2,0.5,2.4,0.8,3.7,1c0.4,0,0.9,0.1,1.3,0.1c0.5,0,1,0,1.5-0.1c0.1,0,0.3,0,0.4-0.1c0.4-0.1,0.7-0.1,1-0.2c0.1,0,0.1,0,0.2,0
		c0,0,0,0,0,0C19.7,24.7,22.6,22.4,24.4,19.3C24.4,19.3,24.4,19.3,24.4,19.3C24.4,19.3,24.4,19.3,24.4,19.3z M15.5,24.6
		c-0.3,0.1-0.7,0.1-1,0.2c-0.1,0-0.2,0-0.3,0c-0.4,0-0.9,0.1-1.3,0.1C6.5,24.8,1.2,19.5,1.2,13S6.5,1.2,13,1.2c0.5,0,0.9,0,1.4,0.1
		c0.1,0,0.3,0,0.4,0.1c0.3,0,0.6,0.1,0.9,0.2c0.1,0,0.3,0.1,0.4,0.1c0.3,0.1,0.6,0.2,0.9,0.3c0.1,0,0.2,0.1,0.4,0.1
		c0.3,0.1,0.7,0.3,1,0.4c3.1,1.6,5.5,4.5,6.2,8c0.1,0.3,0.1,0.7,0.2,1c0,0.1,0,0.2,0,0.3c0,0.4,0.1,0.9,0.1,1.3c0,0.5,0,0.9-0.1,1.4
		c0,0.1,0,0.3-0.1,0.4c0,0.3-0.1,0.6-0.2,0.9c0,0.1-0.1,0.3-0.1,0.4c-0.1,0.3-0.2,0.6-0.3,0.9c0,0.1-0.1,0.2-0.1,0.4
		c-0.1,0.3-0.3,0.7-0.4,1C22,21.5,19.1,23.8,15.5,24.6z"/>
</g>
</svg>
