<?xml version="1.0" encoding="utf-8"?>
<!-- Generator: Adobe Illustrator 18.0.0, SVG Export Plug-In . SVG Version: 6.00 Build 0)  -->
<!DOCTYPE svg PUBLIC "-//W3C//DTD SVG 1.0//EN" "http://www.w3.org/TR/2001/REC-SVG-20010904/DTD/svg10.dtd">
<svg version="1.0" id="Layer_2" xmlns="http://www.w3.org/2000/svg" xmlns:xlink="http://www.w3.org/1999/xlink" x="0px" y="0px"
	 viewBox="0 123.3 595.3 595.3" enable-background="new 0 123.3 595.3 595.3" xml:space="preserve">
<g>
	<g>
		<rect x="155.7" y="382" fill="#FFFFFF" width="87" height="80.1"/>
		<polygon fill="#FFFFFF" points="444.2,462.2 444.2,382 357.2,382 345.7,382 345.7,370.6 345.7,301.9 254.1,301.9 254.1,370.6 
			254.1,382 254.1,462.2 254.1,475.9 254.1,544.6 345.7,544.6 345.7,475.9 345.7,462.2 357.2,462.2 		"/>
		<path fill="#FFFFFF" d="M357.2,370.6h87v-45.8c0-11.4-9.2-22.9-22.9-22.9h-66.4v68.7H357.2z"/>
		<path fill="#FFFFFF" d="M242.7,370.6v-68.7h-64.1c-11.4,0-22.9,9.2-22.9,22.9v45.8H242.7z"/>
		<path fill="#FFFFFF" d="M242.7,475.9h-87v45.8c0,11.4,9.2,22.9,22.9,22.9h64.1V475.9z"/>
		<path fill="#FFFFFF" d="M357.2,475.9v68.7h66.4c11.4,0,22.9-9.2,22.9-22.9v-45.8H357.2z"/>
	</g>
	<path fill="#FFFFFF" d="M563.2,361.4c4.6,18.3,6.9,38.9,6.9,59.5c0,148.8-121.3,270.2-270.2,270.2
		c-151.1,0-272.5-121.3-272.5-270.2s121.3-270.2,270.2-270.2c45.8,0,87,11.4,125.9,29.8c4.6-6.9,11.4-13.7,18.3-20.6
		c-43.5-22.9-91.6-36.6-144.2-36.6C132.8,123.3,0,256.1,0,420.9s132.8,297.6,297.6,297.6s297.6-132.8,297.6-297.6
		c0-25.2-2.3-48.1-9.2-71C579.3,354.5,570.1,359.1,563.2,361.4z"/>
	<circle fill="#FFFFFF" cx="519.7" cy="244.7" r="32.1"/>
</g>
</svg>
