<?xml version="1.0" encoding="utf-8"?>
<!-- Generator: Adobe Illustrator 18.0.0, SVG Export Plug-In . SVG Version: 6.00 Build 0)  -->
<!DOCTYPE svg PUBLIC "-//W3C//DTD SVG 1.0//EN" "http://www.w3.org/TR/2001/REC-SVG-20010904/DTD/svg10.dtd">
<svg version="1.0" id="Layer_1" xmlns="http://www.w3.org/2000/svg" xmlns:xlink="http://www.w3.org/1999/xlink" x="0px" y="0px"
	 viewBox="0 0 153 40" enable-background="new 0 0 153 40" xml:space="preserve">
<g>
	<circle fill="#E63120" cx="133" cy="20" r="20"/>
	<g>
		<path fill="#FFFFFF" d="M124.7,13.4h-0.5c-0.7,0-1.2,0.5-1.2,1.2v0.6v0.1h0v11.5h2.1V15.3h0v-1.9h0H124.7z"/>
		<path fill="#FFFFFF" d="M135.8,13.4h-3.1h-0.4h-0.5c-0.7,0-1.2,0.5-1.2,1.2v0.1v0.5v0h2.1v0h3.2c4.8,0,5.9,2.8,5.9,5
			c0,2.3-1.4,4.7-5.8,4.7h-3.3v-5.8h-2.1v6.6c0.1,0.6,0.6,1,1.2,1h4.5c6.4,0,7.6-4,7.6-6.8C143.9,16.8,141.9,13.4,135.8,13.4z"/>
	</g>
	<g>
		<path fill="#010202" d="M72.3,15.2h10.3v-1.9H70.6c-0.7,0-1.2,0.5-1.2,1.2v0.7h2.1H72.3z"/>
		<path fill="#010202" d="M20.1,19.9c0.1,0.6,0.6,1.1,1.2,1.1h0.9v-7.6h-2.1V19.9z"/>
		<path fill="#010202" d="M20.1,23.7l-8.9-10v0c-0.2-0.2-0.5-0.4-0.8-0.4H10c-0.7,0-1.2,0.5-1.2,1.2v12.2h2.1V16.6l9.2,10.2h2.1
			v-0.8L20.1,23.7L20.1,23.7z"/>
		<path fill="#010202" d="M34.3,13.4h-3.2h-0.3h-0.6c-0.6,0-1.2,0.5-1.2,1.2v0.7h1.8h0.3h0v0h3.2c4.8,0,5.9,2.8,5.9,5
			c0,2.4-1.4,4.7-5.8,4.7h-3.3v-5.8H29v6.4c0,0.7,0.5,1.2,1.2,1.2h4.5c6.4,0,7.7-4,7.7-6.8C42.3,16.8,40.4,13.4,34.3,13.4z"/>
		<path fill="#010202" d="M0,14.6v0.6v0.1v11.5h2.1V15.2v-1.9H1.2C0.6,13.4,0,13.9,0,14.6z"/>
		<path fill="#010202" d="M49.2,14.6v4.3v0.7v0.2c0,0.7,0.5,1.2,1.2,1.2h0.5H51h0.1h0.3h1.3h9.9v-1.9H51.3v-0.2h0v-3.7h11.2v-1.9
			H50.4C49.7,13.4,49.2,13.9,49.2,14.6z"/>
		<path fill="#010202" d="M71.5,19.1h-0.9c-0.7,0-1.2,0.5-1.2,1.2v4.3v0.5v0.5c0,0.7,0.5,1.2,1.2,1.2H71h0.1h0.1h11.5v-1.9H71.5V21
			l0,0h11.2v-1.9H72.3H71.5z"/>
		<path fill="#010202" d="M51.3,24.9h-0.3h-1.9v0.2v0.4c0,0.7,0.5,1.2,1.2,1.2h0.5H51h0.1h11.5v-1.9h-9.9H51.3z"/>
		<path fill="#010202" d="M94.8,13.4h-4c-0.7,0-1.2,0.6-1.2,1.2c0,0,0,0,0,0V21h2.1v-5.8h3.2c4.8,0,5.9,2.8,5.9,5
			c0,2.4-1.4,4.7-5.8,4.7h-3.3v0h-0.3h-1.9v0.5v0.2c0,0.7,0.5,1.2,1.2,1.2h0.5h0.1h0.1h3.8c6.4,0,7.7-4,7.7-6.8
			C102.8,16.8,100.9,13.4,94.8,13.4z"/>
	</g>
</g>
</svg>
