<?xml version="1.0" encoding="utf-8"?>
<!-- Generator: Adobe Illustrator 18.0.0, SVG Export Plug-In . SVG Version: 6.00 Build 0)  -->
<!DOCTYPE svg PUBLIC "-//W3C//DTD SVG 1.0//EN" "http://www.w3.org/TR/2001/REC-SVG-20010904/DTD/svg10.dtd">
<svg version="1.0" id="Layer_1" xmlns="http://www.w3.org/2000/svg" xmlns:xlink="http://www.w3.org/1999/xlink" x="0px" y="0px"
	 viewBox="0 0 147.1 161.3" enable-background="new 0 0 147.1 161.3" xml:space="preserve">
<circle fill="#434343" cx="73.4" cy="40.4" r="40.4"/>
<path fill="#434343" d="M128.2,79.3c-2-1.3-6.1-3.5-10.9-4.4c-5.2-1-7.9-0.4-9.7,1.3c-8.8,8.2-21,12.9-34.3,12.9
	c-11.9,0-22.9-4-31.5-10.6c-1.9-1.5-7.1-4.8-12.6-3.5c-4.5,1.1-7.1,1.8-10.4,4.3C0,92.6-0.4,130.1,0.1,138.1c0,7.8,7,23.1,24.5,23.1
	c13.3,0,36.2,0,46.4,0c0,0,1.9,0,5.1,0c10.2,0,33.1,0,46.4,0c17.5,0,24.5-15.4,24.5-23.1C147.5,130.1,147.1,92.6,128.2,79.3z"/>
</svg>
