<?xml version="1.0" encoding="utf-8"?>
<!-- Generator: Adobe Illustrator 18.0.0, SVG Export Plug-In . SVG Version: 6.00 Build 0)  -->
<!DOCTYPE svg PUBLIC "-//W3C//DTD SVG 1.0//EN" "http://www.w3.org/TR/2001/REC-SVG-20010904/DTD/svg10.dtd">
<svg version="1.0" id="Layer_2" xmlns="http://www.w3.org/2000/svg" xmlns:xlink="http://www.w3.org/1999/xlink" x="0px" y="0px"
	 viewBox="0 0 70 70" enable-background="new 0 0 70 70" xml:space="preserve">
<g>
	<g>
		<circle fill="#FAFAFA" cx="35" cy="35" r="34"/>
		<path fill="#D4D4D4" d="M35,70C15.7,70,0,54.3,0,35S15.7,0,35,0c19.3,0,35,15.7,35,35S54.3,70,35,70z M35,2C16.8,2,2,16.8,2,35
			c0,18.2,14.8,33,33,33c18.2,0,33-14.8,33-33C68,16.8,53.2,2,35,2z"/>
	</g>
	<circle fill="#D4D4D4" cx="34.8" cy="24.7" r="8.8"/>
	<path fill="#D4D4D4" d="M46.7,33.2c-0.4-0.3-1.3-0.8-2.4-1c-1.1-0.2-1.7-0.1-2.1,0.3c-1.9,1.8-4.6,2.8-7.4,2.8
		c-2.6,0-5-0.9-6.8-2.3c-0.4-0.3-1.5-1-2.7-0.8c-1,0.2-1.5,0.4-2.3,0.9c-4.1,2.9-4.2,11-4.1,12.7c0,1.7,1.5,5,5.3,5
		c2.9,0,7.9,0,10.1,0c0,0,0.4,0,1.1,0c2.2,0,7.2,0,10.1,0c3.8,0,5.3-3.3,5.3-5C50.9,44.2,50.8,36,46.7,33.2z"/>
</g>
</svg>
